<svg version="1.0" xmlns="http://www.w3.org/2000/svg" xmlns:xlink="http://www.w3.org/1999/xlink"
	 viewBox="0 0 100 100" enable-background="new 0 0 100 100" xml:space="preserve">
	
<svg xmlns="http://www.w3.org/2000/svg" xmlns:xlink="http://www.w3.org/1999/xlink" version="1.1" width="100" height="100" viewBox="0 0 2000 2000" x="0" y="0" shape-rendering="crispEdges"><defs/><rect x="0" y="0" width="2000" height="2000" fill="#ffffff"/><svg viewBox="0 0 4 4" x="815" y="223" width="74" height="74" shape-rendering="auto"><path fill="#000000" d="M4,0H2A2,2,0,0,0,2,4H4Z"/></svg><svg viewBox="0 0 4 4" x="889" y="223" width="74" height="74" shape-rendering="auto"><rect fill="#000000" width="4" height="4"/></svg><svg viewBox="0 0 4 4" x="963" y="223" width="74" height="74" shape-rendering="auto"><rect fill="#000000" width="4" height="4"/></svg><svg viewBox="0 0 4 4" x="1037" y="223" width="74" height="74" shape-rendering="auto"><rect fill="#000000" width="4" height="4"/></svg><svg viewBox="0 0 4 4" x="1111" y="223" width="74" height="74" shape-rendering="auto"><path fill="#000000" d="M0,4H2A2,2,0,0,0,2,0H0Z"/></svg><svg viewBox="0 0 4 4" x="815" y="297" width="74" height="74" shape-rendering="auto"><path fill="#000000" d="M4,2V0H2A2,2,0,0,1,4,2Z"/></svg><svg viewBox="0 0 4 4" x="889" y="297" width="74" height="74" shape-rendering="auto"><rect fill="#000000" width="4" height="4"/></svg><svg viewBox="0 0 4 4" x="963" y="297" width="74" height="74" shape-rendering="auto"><path fill="#000000" d="M0,2V0H2A2,2,0,0,0,0,2Z"/></svg><svg viewBox="0 0 4 4" x="963" y="297" width="74" height="74" shape-rendering="auto"><path fill="#000000" d="M4,2V0H2A2,2,0,0,1,4,2Z"/></svg><svg viewBox="0 0 4 4" x="963" y="297" width="74" height="74" shape-rendering="auto"><path fill="#000000" d="M0,2V4H2A2,2,0,0,1,0,2Z"/></svg><svg viewBox="0 0 4 4" x="1037" y="297" width="74" height="74" shape-rendering="auto"><path fill="#000000" d="M0,0V2A2,2,0,0,0,4,2H4V0Z"/></svg><svg viewBox="0 0 4 4" x="1111" y="297" width="74" height="74" shape-rendering="auto"><path fill="#000000" d="M0,2V0H2A2,2,0,0,0,0,2Z"/></svg><svg viewBox="0 0 4 4" x="889" y="371" width="74" height="74" shape-rendering="auto"><rect fill="#000000" width="4" height="4"/></svg><svg viewBox="0 0 4 4" x="963" y="371" width="74" height="74" shape-rendering="auto"><path fill="#000000" d="M4,2V4H0V0H2A2,2,0,0,1,4,2Z"/></svg><svg viewBox="0 0 4 4" x="1037" y="371" width="74" height="74" shape-rendering="auto"><path fill="#000000" d="M0,2V4H2A2,2,0,0,1,0,2Z"/></svg><svg viewBox="0 0 4 4" x="889" y="445" width="74" height="74" shape-rendering="auto"><path fill="#000000" d="M2,4H4V0H0V2A2,2,0,0,0,2,4Z"/></svg><svg viewBox="0 0 4 4" x="963" y="445" width="74" height="74" shape-rendering="auto"><rect fill="#000000" width="4" height="4"/></svg><svg viewBox="0 0 4 4" x="1037" y="445" width="74" height="74" shape-rendering="auto"><path fill="#000000" d="M0,4H2A2,2,0,0,0,2,0H0Z"/></svg><svg viewBox="0 0 4 4" x="889" y="519" width="74" height="74" shape-rendering="auto"><path fill="#000000" d="M4,2V0H2A2,2,0,0,1,4,2Z"/></svg><svg viewBox="0 0 4 4" x="963" y="519" width="74" height="74" shape-rendering="auto"><path fill="#000000" d="M0,0V2A2,2,0,0,0,4,2H4V0Z"/></svg><svg viewBox="0 0 4 4" x="1037" y="519" width="74" height="74" shape-rendering="auto"><path fill="#000000" d="M0,2V0H2A2,2,0,0,0,0,2Z"/></svg><svg viewBox="0 0 4 4" x="1037" y="519" width="74" height="74" shape-rendering="auto"><path fill="#000000" d="M2,4H4V2A2,2,0,0,1,2,4Z"/></svg><svg viewBox="0 0 4 4" x="1111" y="519" width="74" height="74" shape-rendering="auto"><path fill="#000000" d="M4,4V2A2,2,0,0,0,0,2H0V4Z"/></svg><svg viewBox="0 0 4 4" x="1037" y="593" width="74" height="74" shape-rendering="auto"><path fill="#000000" d="M4,0H2A2,2,0,0,0,2,4H4Z"/></svg><svg viewBox="0 0 4 4" x="1111" y="593" width="74" height="74" shape-rendering="auto"><rect fill="#000000" width="4" height="4"/></svg><svg viewBox="0 0 4 4" x="815" y="667" width="74" height="74" shape-rendering="auto"><path fill="#000000" d="M4,4V2A2,2,0,0,0,0,2H0V4Z"/></svg><svg viewBox="0 0 4 4" x="889" y="667" width="74" height="74" shape-rendering="auto"><path fill="#000000" d="M2,4H4V2A2,2,0,0,1,2,4Z"/></svg><svg viewBox="0 0 4 4" x="889" y="667" width="74" height="74" shape-rendering="auto"><path fill="#000000" d="M0,2V4H2A2,2,0,0,1,0,2Z"/></svg><svg viewBox="0 0 4 4" x="963" y="667" width="74" height="74" shape-rendering="auto"><path fill="#000000" d="M4,4V2A2,2,0,0,0,0,2H0V4Z"/></svg><svg viewBox="0 0 4 4" x="1037" y="667" width="74" height="74" shape-rendering="auto"><path fill="#000000" d="M4,2V0H2A2,2,0,0,1,4,2Z"/></svg><svg viewBox="0 0 4 4" x="1037" y="667" width="74" height="74" shape-rendering="auto"><path fill="#000000" d="M2,4H4V2A2,2,0,0,1,2,4Z"/></svg><svg viewBox="0 0 4 4" x="1037" y="667" width="74" height="74" shape-rendering="auto"><path fill="#000000" d="M0,2V4H2A2,2,0,0,1,0,2Z"/></svg><svg viewBox="0 0 4 4" x="1111" y="667" width="74" height="74" shape-rendering="auto"><rect fill="#000000" width="4" height="4"/></svg><svg viewBox="0 0 4 4" x="815" y="741" width="74" height="74" shape-rendering="auto"><path fill="#000000" d="M2,4H4V0H0V2A2,2,0,0,0,2,4Z"/></svg><svg viewBox="0 0 4 4" x="889" y="741" width="74" height="74" shape-rendering="auto"><rect fill="#000000" width="4" height="4"/></svg><svg viewBox="0 0 4 4" x="963" y="741" width="74" height="74" shape-rendering="auto"><rect fill="#000000" width="4" height="4"/></svg><svg viewBox="0 0 4 4" x="1037" y="741" width="74" height="74" shape-rendering="auto"><rect fill="#000000" width="4" height="4"/></svg><svg viewBox="0 0 4 4" x="1111" y="741" width="74" height="74" shape-rendering="auto"><rect fill="#000000" width="4" height="4"/></svg><svg viewBox="0 0 4 4" x="223" y="815" width="74" height="74" shape-rendering="auto"><path fill="#000000" d="M0,2V4H4V0H2A2,2,0,0,0,0,2Z"/></svg><svg viewBox="0 0 4 4" x="297" y="815" width="74" height="74" shape-rendering="auto"><path fill="#000000" d="M4,2V4H0V0H2A2,2,0,0,1,4,2Z"/></svg><svg viewBox="0 0 4 4" x="445" y="815" width="74" height="74" shape-rendering="auto"><path fill="#000000" d="M4,0H2A2,2,0,0,0,2,4H4Z"/></svg><svg viewBox="0 0 4 4" x="519" y="815" width="74" height="74" shape-rendering="auto"><path fill="#000000" d="M4,2V4H0V0H2A2,2,0,0,1,4,2Z"/></svg><svg viewBox="0 0 4 4" x="667" y="815" width="74" height="74" shape-rendering="auto"><path fill="#000000" d="M0,2A2,2,0,0,0,2,4H2A2,2,0,0,0,2,0H2A2,2,0,0,0,0,2Z"/></svg><svg viewBox="0 0 4 4" x="815" y="815" width="74" height="74" shape-rendering="auto"><path fill="#000000" d="M4,2V0H2A2,2,0,0,1,4,2Z"/></svg><svg viewBox="0 0 4 4" x="889" y="815" width="74" height="74" shape-rendering="auto"><rect fill="#000000" width="4" height="4"/></svg><svg viewBox="0 0 4 4" x="963" y="815" width="74" height="74" shape-rendering="auto"><path fill="#000000" d="M2,4H0V0H4V2A2,2,0,0,1,2,4Z"/></svg><svg viewBox="0 0 4 4" x="1037" y="815" width="74" height="74" shape-rendering="auto"><path fill="#000000" d="M0,2V0H2A2,2,0,0,0,0,2Z"/></svg><svg viewBox="0 0 4 4" x="1037" y="815" width="74" height="74" shape-rendering="auto"><path fill="#000000" d="M4,2V0H2A2,2,0,0,1,4,2Z"/></svg><svg viewBox="0 0 4 4" x="1111" y="815" width="74" height="74" shape-rendering="auto"><rect fill="#000000" width="4" height="4"/></svg><svg viewBox="0 0 4 4" x="1259" y="815" width="74" height="74" shape-rendering="auto"><path fill="#000000" d="M4,4V2A2,2,0,0,0,0,2H0V4Z"/></svg><svg viewBox="0 0 4 4" x="1629" y="815" width="74" height="74" shape-rendering="auto"><path fill="#000000" d="M2,4H4V2A2,2,0,0,1,2,4Z"/></svg><svg viewBox="0 0 4 4" x="1703" y="815" width="74" height="74" shape-rendering="auto"><path fill="#000000" d="M4,4V2A2,2,0,0,0,0,2H0V4Z"/></svg><svg viewBox="0 0 4 4" x="223" y="889" width="74" height="74" shape-rendering="auto"><rect fill="#000000" width="4" height="4"/></svg><svg viewBox="0 0 4 4" x="297" y="889" width="74" height="74" shape-rendering="auto"><path fill="#000000" d="M2,4H0V0H4V2A2,2,0,0,1,2,4Z"/></svg><svg viewBox="0 0 4 4" x="445" y="889" width="74" height="74" shape-rendering="auto"><path fill="#000000" d="M4,2V0H2A2,2,0,0,1,4,2Z"/></svg><svg viewBox="0 0 4 4" x="519" y="889" width="74" height="74" shape-rendering="auto"><path fill="#000000" d="M0,0V2A2,2,0,0,0,4,2H4V0Z"/></svg><svg viewBox="0 0 4 4" x="741" y="889" width="74" height="74" shape-rendering="auto"><path fill="#000000" d="M0,2A2,2,0,0,0,2,4H2A2,2,0,0,0,2,0H2A2,2,0,0,0,0,2Z"/></svg><svg viewBox="0 0 4 4" x="815" y="889" width="74" height="74" shape-rendering="auto"><path fill="#000000" d="M2,4H4V2A2,2,0,0,1,2,4Z"/></svg><svg viewBox="0 0 4 4" x="889" y="889" width="74" height="74" shape-rendering="auto"><rect fill="#000000" width="4" height="4"/></svg><svg viewBox="0 0 4 4" x="963" y="889" width="74" height="74" shape-rendering="auto"><path fill="#000000" d="M0,2V0H2A2,2,0,0,0,0,2Z"/></svg><svg viewBox="0 0 4 4" x="963" y="889" width="74" height="74" shape-rendering="auto"><path fill="#000000" d="M0,2V4H2A2,2,0,0,1,0,2Z"/></svg><svg viewBox="0 0 4 4" x="1111" y="889" width="74" height="74" shape-rendering="auto"><path fill="#000000" d="M0,0V2A2,2,0,0,0,4,2H4V0Z"/></svg><svg viewBox="0 0 4 4" x="1259" y="889" width="74" height="74" shape-rendering="auto"><rect fill="#000000" width="4" height="4"/></svg><svg viewBox="0 0 4 4" x="1333" y="889" width="74" height="74" shape-rendering="auto"><path fill="#000000" d="M0,2V4H2A2,2,0,0,1,0,2Z"/></svg><svg viewBox="0 0 4 4" x="1407" y="889" width="74" height="74" shape-rendering="auto"><path fill="#000000" d="M0,2A2,2,0,0,0,2,4H2A2,2,0,0,0,2,0H2A2,2,0,0,0,0,2Z"/></svg><svg viewBox="0 0 4 4" x="1481" y="889" width="74" height="74" shape-rendering="auto"><path fill="#000000" d="M2,4H4V2A2,2,0,0,1,2,4Z"/></svg><svg viewBox="0 0 4 4" x="1555" y="889" width="74" height="74" shape-rendering="auto"><path fill="#000000" d="M0,2V4H4V0H2A2,2,0,0,0,0,2Z"/></svg><svg viewBox="0 0 4 4" x="1629" y="889" width="74" height="74" shape-rendering="auto"><rect fill="#000000" width="4" height="4"/></svg><svg viewBox="0 0 4 4" x="1703" y="889" width="74" height="74" shape-rendering="auto"><path fill="#000000" d="M2,4H0V0H4V2A2,2,0,0,1,2,4Z"/></svg><svg viewBox="0 0 4 4" x="223" y="963" width="74" height="74" shape-rendering="auto"><path fill="#000000" d="M0,0V2A2,2,0,0,0,4,2H4V0Z"/></svg><svg viewBox="0 0 4 4" x="297" y="963" width="74" height="74" shape-rendering="auto"><path fill="#000000" d="M0,2V0H2A2,2,0,0,0,0,2Z"/></svg><svg viewBox="0 0 4 4" x="371" y="963" width="74" height="74" shape-rendering="auto"><path fill="#000000" d="M0,2V4H4V0H2A2,2,0,0,0,0,2Z"/></svg><svg viewBox="0 0 4 4" x="445" y="963" width="74" height="74" shape-rendering="auto"><path fill="#000000" d="M4,2V4H0V0H2A2,2,0,0,1,4,2Z"/></svg><svg viewBox="0 0 4 4" x="667" y="963" width="74" height="74" shape-rendering="auto"><path fill="#000000" d="M0,2A2,2,0,0,0,2,4H2A2,2,0,0,0,2,0H2A2,2,0,0,0,0,2Z"/></svg><svg viewBox="0 0 4 4" x="815" y="963" width="74" height="74" shape-rendering="auto"><path fill="#000000" d="M0,2V4H4V0H2A2,2,0,0,0,0,2Z"/></svg><svg viewBox="0 0 4 4" x="889" y="963" width="74" height="74" shape-rendering="auto"><rect fill="#000000" width="4" height="4"/></svg><svg viewBox="0 0 4 4" x="963" y="963" width="74" height="74" shape-rendering="auto"><path fill="#000000" d="M0,4H2A2,2,0,0,0,2,0H0Z"/></svg><svg viewBox="0 0 4 4" x="1259" y="963" width="74" height="74" shape-rendering="auto"><rect fill="#000000" width="4" height="4"/></svg><svg viewBox="0 0 4 4" x="1333" y="963" width="74" height="74" shape-rendering="auto"><path fill="#000000" d="M0,4H2A2,2,0,0,0,2,0H0Z"/></svg><svg viewBox="0 0 4 4" x="1481" y="963" width="74" height="74" shape-rendering="auto"><path fill="#000000" d="M4,0H2A2,2,0,0,0,2,4H4Z"/></svg><svg viewBox="0 0 4 4" x="1555" y="963" width="74" height="74" shape-rendering="auto"><rect fill="#000000" width="4" height="4"/></svg><svg viewBox="0 0 4 4" x="1629" y="963" width="74" height="74" shape-rendering="auto"><path fill="#000000" d="M2,4H0V0H4V2A2,2,0,0,1,2,4Z"/></svg><svg viewBox="0 0 4 4" x="1703" y="963" width="74" height="74" shape-rendering="auto"><path fill="#000000" d="M0,2V0H2A2,2,0,0,0,0,2Z"/></svg><svg viewBox="0 0 4 4" x="371" y="1037" width="74" height="74" shape-rendering="auto"><path fill="#000000" d="M2,4H4V0H0V2A2,2,0,0,0,2,4Z"/></svg><svg viewBox="0 0 4 4" x="445" y="1037" width="74" height="74" shape-rendering="auto"><rect fill="#000000" width="4" height="4"/></svg><svg viewBox="0 0 4 4" x="519" y="1037" width="74" height="74" shape-rendering="auto"><path fill="#000000" d="M0,2V4H2A2,2,0,0,1,0,2Z"/></svg><svg viewBox="0 0 4 4" x="815" y="1037" width="74" height="74" shape-rendering="auto"><path fill="#000000" d="M2,4H4V0H0V2A2,2,0,0,0,2,4Z"/></svg><svg viewBox="0 0 4 4" x="889" y="1037" width="74" height="74" shape-rendering="auto"><rect fill="#000000" width="4" height="4"/></svg><svg viewBox="0 0 4 4" x="963" y="1037" width="74" height="74" shape-rendering="auto"><path fill="#000000" d="M0,2V0H2A2,2,0,0,0,0,2Z"/></svg><svg viewBox="0 0 4 4" x="1037" y="1037" width="74" height="74" shape-rendering="auto"><path fill="#000000" d="M0,2A2,2,0,0,0,2,4H2A2,2,0,0,0,2,0H2A2,2,0,0,0,0,2Z"/></svg><svg viewBox="0 0 4 4" x="1259" y="1037" width="74" height="74" shape-rendering="auto"><path fill="#000000" d="M0,0V2A2,2,0,0,0,4,2H4V0Z"/></svg><svg viewBox="0 0 4 4" x="1333" y="1037" width="74" height="74" shape-rendering="auto"><path fill="#000000" d="M0,2V0H2A2,2,0,0,0,0,2Z"/></svg><svg viewBox="0 0 4 4" x="1407" y="1037" width="74" height="74" shape-rendering="auto"><path fill="#000000" d="M0,2A2,2,0,0,0,2,4H2A2,2,0,0,0,2,0H2A2,2,0,0,0,0,2Z"/></svg><svg viewBox="0 0 4 4" x="1481" y="1037" width="74" height="74" shape-rendering="auto"><path fill="#000000" d="M4,2V0H2A2,2,0,0,1,4,2Z"/></svg><svg viewBox="0 0 4 4" x="1555" y="1037" width="74" height="74" shape-rendering="auto"><rect fill="#000000" width="4" height="4"/></svg><svg viewBox="0 0 4 4" x="1629" y="1037" width="74" height="74" shape-rendering="auto"><path fill="#000000" d="M0,2V0H2A2,2,0,0,0,0,2Z"/></svg><svg viewBox="0 0 4 4" x="1629" y="1037" width="74" height="74" shape-rendering="auto"><path fill="#000000" d="M2,4H4V2A2,2,0,0,1,2,4Z"/></svg><svg viewBox="0 0 4 4" x="1629" y="1037" width="74" height="74" shape-rendering="auto"><path fill="#000000" d="M0,2V4H2A2,2,0,0,1,0,2Z"/></svg><svg viewBox="0 0 4 4" x="1703" y="1037" width="74" height="74" shape-rendering="auto"><path fill="#000000" d="M4,4V2A2,2,0,0,0,0,2H0V4Z"/></svg><svg viewBox="0 0 4 4" x="223" y="1111" width="74" height="74" shape-rendering="auto"><path fill="#000000" d="M4,0H2A2,2,0,0,0,2,4H4Z"/></svg><svg viewBox="0 0 4 4" x="297" y="1111" width="74" height="74" shape-rendering="auto"><path fill="#000000" d="M0,4H2A2,2,0,0,0,2,0H0Z"/></svg><svg viewBox="0 0 4 4" x="371" y="1111" width="74" height="74" shape-rendering="auto"><path fill="#000000" d="M4,2V0H2A2,2,0,0,1,4,2Z"/></svg><svg viewBox="0 0 4 4" x="445" y="1111" width="74" height="74" shape-rendering="auto"><path fill="#000000" d="M2,4H4V0H0V2A2,2,0,0,0,2,4Z"/></svg><svg viewBox="0 0 4 4" x="519" y="1111" width="74" height="74" shape-rendering="auto"><rect fill="#000000" width="4" height="4"/></svg><svg viewBox="0 0 4 4" x="593" y="1111" width="74" height="74" shape-rendering="auto"><rect fill="#000000" width="4" height="4"/></svg><svg viewBox="0 0 4 4" x="667" y="1111" width="74" height="74" shape-rendering="auto"><path fill="#000000" d="M0,4H2A2,2,0,0,0,2,0H0Z"/></svg><svg viewBox="0 0 4 4" x="815" y="1111" width="74" height="74" shape-rendering="auto"><path fill="#000000" d="M4,2V0H2A2,2,0,0,1,4,2Z"/></svg><svg viewBox="0 0 4 4" x="889" y="1111" width="74" height="74" shape-rendering="auto"><path fill="#000000" d="M0,0V2A2,2,0,0,0,4,2H4V0Z"/></svg><svg viewBox="0 0 4 4" x="1111" y="1111" width="74" height="74" shape-rendering="auto"><path fill="#000000" d="M2,4H4V2A2,2,0,0,1,2,4Z"/></svg><svg viewBox="0 0 4 4" x="1185" y="1111" width="74" height="74" shape-rendering="auto"><path fill="#000000" d="M4,4V2A2,2,0,0,0,0,2H0V4Z"/></svg><svg viewBox="0 0 4 4" x="1259" y="1111" width="74" height="74" shape-rendering="auto"><path fill="#000000" d="M2,4H4V2A2,2,0,0,1,2,4Z"/></svg><svg viewBox="0 0 4 4" x="1259" y="1111" width="74" height="74" shape-rendering="auto"><path fill="#000000" d="M0,2V4H2A2,2,0,0,1,0,2Z"/></svg><svg viewBox="0 0 4 4" x="1333" y="1111" width="74" height="74" shape-rendering="auto"><path fill="#000000" d="M4,4V2A2,2,0,0,0,0,2H0V4Z"/></svg><svg viewBox="0 0 4 4" x="1555" y="1111" width="74" height="74" shape-rendering="auto"><path fill="#000000" d="M2,4H4V0H0V2A2,2,0,0,0,2,4Z"/></svg><svg viewBox="0 0 4 4" x="1629" y="1111" width="74" height="74" shape-rendering="auto"><rect fill="#000000" width="4" height="4"/></svg><svg viewBox="0 0 4 4" x="1703" y="1111" width="74" height="74" shape-rendering="auto"><rect fill="#000000" width="4" height="4"/></svg><svg viewBox="0 0 4 4" x="815" y="1185" width="74" height="74" shape-rendering="auto"><path fill="#000000" d="M0,2A2,2,0,0,0,2,4H2A2,2,0,0,0,2,0H2A2,2,0,0,0,0,2Z"/></svg><svg viewBox="0 0 4 4" x="1037" y="1185" width="74" height="74" shape-rendering="auto"><path fill="#000000" d="M4,0H2A2,2,0,0,0,2,4H4Z"/></svg><svg viewBox="0 0 4 4" x="1111" y="1185" width="74" height="74" shape-rendering="auto"><rect fill="#000000" width="4" height="4"/></svg><svg viewBox="0 0 4 4" x="1185" y="1185" width="74" height="74" shape-rendering="auto"><rect fill="#000000" width="4" height="4"/></svg><svg viewBox="0 0 4 4" x="1259" y="1185" width="74" height="74" shape-rendering="auto"><rect fill="#000000" width="4" height="4"/></svg><svg viewBox="0 0 4 4" x="1333" y="1185" width="74" height="74" shape-rendering="auto"><path fill="#000000" d="M2,4H0V0H4V2A2,2,0,0,1,2,4Z"/></svg><svg viewBox="0 0 4 4" x="1481" y="1185" width="74" height="74" shape-rendering="auto"><path fill="#000000" d="M4,4V2A2,2,0,0,0,0,2H0V4Z"/></svg><svg viewBox="0 0 4 4" x="1555" y="1185" width="74" height="74" shape-rendering="auto"><path fill="#000000" d="M4,2V0H2A2,2,0,0,1,4,2Z"/></svg><svg viewBox="0 0 4 4" x="1555" y="1185" width="74" height="74" shape-rendering="auto"><path fill="#000000" d="M2,4H4V2A2,2,0,0,1,2,4Z"/></svg><svg viewBox="0 0 4 4" x="1555" y="1185" width="74" height="74" shape-rendering="auto"><path fill="#000000" d="M0,2V4H2A2,2,0,0,1,0,2Z"/></svg><svg viewBox="0 0 4 4" x="1629" y="1185" width="74" height="74" shape-rendering="auto"><rect fill="#000000" width="4" height="4"/></svg><svg viewBox="0 0 4 4" x="1703" y="1185" width="74" height="74" shape-rendering="auto"><path fill="#000000" d="M2,4H0V0H4V2A2,2,0,0,1,2,4Z"/></svg><svg viewBox="0 0 4 4" x="963" y="1259" width="74" height="74" shape-rendering="auto"><path fill="#000000" d="M0,2A2,2,0,0,0,2,4H2A2,2,0,0,0,2,0H2A2,2,0,0,0,0,2Z"/></svg><svg viewBox="0 0 4 4" x="1037" y="1259" width="74" height="74" shape-rendering="auto"><path fill="#000000" d="M4,2V0H2A2,2,0,0,1,4,2Z"/></svg><svg viewBox="0 0 4 4" x="1037" y="1259" width="74" height="74" shape-rendering="auto"><path fill="#000000" d="M2,4H4V2A2,2,0,0,1,2,4Z"/></svg><svg viewBox="0 0 4 4" x="1111" y="1259" width="74" height="74" shape-rendering="auto"><rect fill="#000000" width="4" height="4"/></svg><svg viewBox="0 0 4 4" x="1185" y="1259" width="74" height="74" shape-rendering="auto"><rect fill="#000000" width="4" height="4"/></svg><svg viewBox="0 0 4 4" x="1259" y="1259" width="74" height="74" shape-rendering="auto"><path fill="#000000" d="M2,4H0V0H4V2A2,2,0,0,1,2,4Z"/></svg><svg viewBox="0 0 4 4" x="1333" y="1259" width="74" height="74" shape-rendering="auto"><path fill="#000000" d="M0,2V0H2A2,2,0,0,0,0,2Z"/></svg><svg viewBox="0 0 4 4" x="1481" y="1259" width="74" height="74" shape-rendering="auto"><path fill="#000000" d="M2,4H4V0H0V2A2,2,0,0,0,2,4Z"/></svg><svg viewBox="0 0 4 4" x="1555" y="1259" width="74" height="74" shape-rendering="auto"><rect fill="#000000" width="4" height="4"/></svg><svg viewBox="0 0 4 4" x="1629" y="1259" width="74" height="74" shape-rendering="auto"><rect fill="#000000" width="4" height="4"/></svg><svg viewBox="0 0 4 4" x="1703" y="1259" width="74" height="74" shape-rendering="auto"><path fill="#000000" d="M0,2V0H2A2,2,0,0,0,0,2Z"/></svg><svg viewBox="0 0 4 4" x="815" y="1333" width="74" height="74" shape-rendering="auto"><path fill="#000000" d="M2,4H4V2A2,2,0,0,1,2,4Z"/></svg><svg viewBox="0 0 4 4" x="889" y="1333" width="74" height="74" shape-rendering="auto"><path fill="#000000" d="M4,4V2A2,2,0,0,0,0,2H0V4Z"/></svg><svg viewBox="0 0 4 4" x="1037" y="1333" width="74" height="74" shape-rendering="auto"><path fill="#000000" d="M0,2V4H4V0H2A2,2,0,0,0,0,2Z"/></svg><svg viewBox="0 0 4 4" x="1111" y="1333" width="74" height="74" shape-rendering="auto"><rect fill="#000000" width="4" height="4"/></svg><svg viewBox="0 0 4 4" x="1185" y="1333" width="74" height="74" shape-rendering="auto"><path fill="#000000" d="M2,4H0V0H4V2A2,2,0,0,1,2,4Z"/></svg><svg viewBox="0 0 4 4" x="1259" y="1333" width="74" height="74" shape-rendering="auto"><path fill="#000000" d="M0,2V0H2A2,2,0,0,0,0,2Z"/></svg><svg viewBox="0 0 4 4" x="1407" y="1333" width="74" height="74" shape-rendering="auto"><path fill="#000000" d="M0,2A2,2,0,0,0,2,4H2A2,2,0,0,0,2,0H2A2,2,0,0,0,0,2Z"/></svg><svg viewBox="0 0 4 4" x="1555" y="1333" width="74" height="74" shape-rendering="auto"><path fill="#000000" d="M4,2V0H2A2,2,0,0,1,4,2Z"/></svg><svg viewBox="0 0 4 4" x="1555" y="1333" width="74" height="74" shape-rendering="auto"><path fill="#000000" d="M2,4H4V2A2,2,0,0,1,2,4Z"/></svg><svg viewBox="0 0 4 4" x="1629" y="1333" width="74" height="74" shape-rendering="auto"><rect fill="#000000" width="4" height="4"/></svg><svg viewBox="0 0 4 4" x="1703" y="1333" width="74" height="74" shape-rendering="auto"><path fill="#000000" d="M0,2V4H2A2,2,0,0,1,0,2Z"/></svg><svg viewBox="0 0 4 4" x="815" y="1407" width="74" height="74" shape-rendering="auto"><path fill="#000000" d="M0,2V4H4V0H2A2,2,0,0,0,0,2Z"/></svg><svg viewBox="0 0 4 4" x="889" y="1407" width="74" height="74" shape-rendering="auto"><rect fill="#000000" width="4" height="4"/></svg><svg viewBox="0 0 4 4" x="1037" y="1407" width="74" height="74" shape-rendering="auto"><rect fill="#000000" width="4" height="4"/></svg><svg viewBox="0 0 4 4" x="1111" y="1407" width="74" height="74" shape-rendering="auto"><rect fill="#000000" width="4" height="4"/></svg><svg viewBox="0 0 4 4" x="1185" y="1407" width="74" height="74" shape-rendering="auto"><path fill="#000000" d="M0,2V0H2A2,2,0,0,0,0,2Z"/></svg><svg viewBox="0 0 4 4" x="1333" y="1407" width="74" height="74" shape-rendering="auto"><path fill="#000000" d="M0,2A2,2,0,0,0,2,4H2A2,2,0,0,0,2,0H2A2,2,0,0,0,0,2Z"/></svg><svg viewBox="0 0 4 4" x="1555" y="1407" width="74" height="74" shape-rendering="auto"><path fill="#000000" d="M0,2V4H4V0H2A2,2,0,0,0,0,2Z"/></svg><svg viewBox="0 0 4 4" x="1629" y="1407" width="74" height="74" shape-rendering="auto"><rect fill="#000000" width="4" height="4"/></svg><svg viewBox="0 0 4 4" x="1703" y="1407" width="74" height="74" shape-rendering="auto"><path fill="#000000" d="M0,4H2A2,2,0,0,0,2,0H0Z"/></svg><svg viewBox="0 0 4 4" x="815" y="1481" width="74" height="74" shape-rendering="auto"><path fill="#000000" d="M2,4H4V0H0V2A2,2,0,0,0,2,4Z"/></svg><svg viewBox="0 0 4 4" x="889" y="1481" width="74" height="74" shape-rendering="auto"><path fill="#000000" d="M2,4H0V0H4V2A2,2,0,0,1,2,4Z"/></svg><svg viewBox="0 0 4 4" x="1037" y="1481" width="74" height="74" shape-rendering="auto"><path fill="#000000" d="M2,4H4V0H0V2A2,2,0,0,0,2,4Z"/></svg><svg viewBox="0 0 4 4" x="1111" y="1481" width="74" height="74" shape-rendering="auto"><path fill="#000000" d="M2,4H0V0H4V2A2,2,0,0,1,2,4Z"/></svg><svg viewBox="0 0 4 4" x="1407" y="1481" width="74" height="74" shape-rendering="auto"><path fill="#000000" d="M0,2A2,2,0,0,0,2,4H2A2,2,0,0,0,2,0H2A2,2,0,0,0,0,2Z"/></svg><svg viewBox="0 0 4 4" x="1555" y="1481" width="74" height="74" shape-rendering="auto"><path fill="#000000" d="M0,0V2A2,2,0,0,0,4,2H4V0Z"/></svg><svg viewBox="0 0 4 4" x="1629" y="1481" width="74" height="74" shape-rendering="auto"><path fill="#000000" d="M0,2V0H2A2,2,0,0,0,0,2Z"/></svg><svg viewBox="0 0 4 4" x="1185" y="1555" width="74" height="74" shape-rendering="auto"><path fill="#000000" d="M0,2V4H4V0H2A2,2,0,0,0,0,2Z"/></svg><svg viewBox="0 0 4 4" x="1259" y="1555" width="74" height="74" shape-rendering="auto"><path fill="#000000" d="M4,2V4H0V0H2A2,2,0,0,1,4,2Z"/></svg><svg viewBox="0 0 4 4" x="1333" y="1555" width="74" height="74" shape-rendering="auto"><path fill="#000000" d="M0,2V4H2A2,2,0,0,1,0,2Z"/></svg><svg viewBox="0 0 4 4" x="1555" y="1555" width="74" height="74" shape-rendering="auto"><path fill="#000000" d="M2,4H4V2A2,2,0,0,1,2,4Z"/></svg><svg viewBox="0 0 4 4" x="1629" y="1555" width="74" height="74" shape-rendering="auto"><path fill="#000000" d="M0,2V4H4V0H2A2,2,0,0,0,0,2Z"/></svg><svg viewBox="0 0 4 4" x="1703" y="1555" width="74" height="74" shape-rendering="auto"><path fill="#000000" d="M0,4H2A2,2,0,0,0,2,0H0Z"/></svg><svg viewBox="0 0 4 4" x="815" y="1629" width="74" height="74" shape-rendering="auto"><path fill="#000000" d="M4,4V2A2,2,0,0,0,0,2H0V4Z"/></svg><svg viewBox="0 0 4 4" x="963" y="1629" width="74" height="74" shape-rendering="auto"><path fill="#000000" d="M4,4V2A2,2,0,0,0,0,2H0V4Z"/></svg><svg viewBox="0 0 4 4" x="1037" y="1629" width="74" height="74" shape-rendering="auto"><path fill="#000000" d="M0,2V4H2A2,2,0,0,1,0,2Z"/></svg><svg viewBox="0 0 4 4" x="1185" y="1629" width="74" height="74" shape-rendering="auto"><rect fill="#000000" width="4" height="4"/></svg><svg viewBox="0 0 4 4" x="1259" y="1629" width="74" height="74" shape-rendering="auto"><rect fill="#000000" width="4" height="4"/></svg><svg viewBox="0 0 4 4" x="1333" y="1629" width="74" height="74" shape-rendering="auto"><path fill="#000000" d="M0,4H2A2,2,0,0,0,2,0H0Z"/></svg><svg viewBox="0 0 4 4" x="1481" y="1629" width="74" height="74" shape-rendering="auto"><path fill="#000000" d="M4,0H2A2,2,0,0,0,2,4H4Z"/></svg><svg viewBox="0 0 4 4" x="1555" y="1629" width="74" height="74" shape-rendering="auto"><rect fill="#000000" width="4" height="4"/></svg><svg viewBox="0 0 4 4" x="1629" y="1629" width="74" height="74" shape-rendering="auto"><rect fill="#000000" width="4" height="4"/></svg><svg viewBox="0 0 4 4" x="1703" y="1629" width="74" height="74" shape-rendering="auto"><path fill="#000000" d="M0,2V0H2A2,2,0,0,0,0,2Z"/></svg><svg viewBox="0 0 4 4" x="815" y="1703" width="74" height="74" shape-rendering="auto"><path fill="#000000" d="M0,0V2A2,2,0,0,0,4,2H4V0Z"/></svg><svg viewBox="0 0 4 4" x="963" y="1703" width="74" height="74" shape-rendering="auto"><path fill="#000000" d="M2,4H4V0H0V2A2,2,0,0,0,2,4Z"/></svg><svg viewBox="0 0 4 4" x="1037" y="1703" width="74" height="74" shape-rendering="auto"><path fill="#000000" d="M0,4H2A2,2,0,0,0,2,0H0Z"/></svg><svg viewBox="0 0 4 4" x="1185" y="1703" width="74" height="74" shape-rendering="auto"><path fill="#000000" d="M0,0V2A2,2,0,0,0,4,2H4V0Z"/></svg><svg viewBox="0 0 4 4" x="1259" y="1703" width="74" height="74" shape-rendering="auto"><path fill="#000000" d="M0,2V0H2A2,2,0,0,0,0,2Z"/></svg><svg viewBox="0 0 4 4" x="1407" y="1703" width="74" height="74" shape-rendering="auto"><path fill="#000000" d="M0,2A2,2,0,0,0,2,4H2A2,2,0,0,0,2,0H2A2,2,0,0,0,0,2Z"/></svg><svg viewBox="0 0 4 4" x="1481" y="1703" width="74" height="74" shape-rendering="auto"><path fill="#000000" d="M4,2V0H2A2,2,0,0,1,4,2Z"/></svg><svg viewBox="0 0 4 4" x="1555" y="1703" width="74" height="74" shape-rendering="auto"><path fill="#000000" d="M2,4H4V0H0V2A2,2,0,0,0,2,4Z"/></svg><svg viewBox="0 0 4 4" x="1629" y="1703" width="74" height="74" shape-rendering="auto"><path fill="#000000" d="M2,4H0V0H4V2A2,2,0,0,1,2,4Z"/></svg><svg version="1.1" id="Ebene_1" x="223" y="223" width="518" height="518" viewBox="0 0 699.988 699.988" enable-background="new 0 0 699.988 699.988" xml:space="preserve" shape-rendering="auto">
<path fill="#000000" d="M488.367,0H211.621C94.746,0,0,94.746,0,211.621v276.745c0,116.876,94.746,211.622,211.621,211.622h276.746  c116.875,0,211.621-94.746,211.621-211.622V211.621C699.988,94.746,605.242,0,488.367,0z M599.99,448.832  c0,83.482-67.676,151.158-151.158,151.158H251.156c-83.482,0-151.158-67.676-151.158-151.158V251.156  c0-83.482,67.676-151.158,151.158-151.158h197.676c83.482,0,151.158,67.676,151.158,151.158V448.832z"/>
</svg>
<svg version="1.1" id="Ebene_1" x="223" y="223" width="518" height="518" viewBox="0 0 699.988 699.988" enable-background="new 0 0 699.988 699.988" xml:space="preserve" shape-rendering="auto">
<path fill="#000000" d="M499.991,409.296c0,50.091-40.604,90.694-90.693,90.694H290.691c-50.089,0-90.694-40.604-90.694-90.694  V290.692c0-50.09,40.605-90.694,90.694-90.694h118.605c50.089,0,90.693,40.604,90.693,90.694L499.991,409.296L499.991,409.296z"/>
</svg>
<svg version="1.1" id="Ebene_1" x="1259" y="223" width="518" height="518" viewBox="0 0 699.988 699.988" enable-background="new 0 0 699.988 699.988" xml:space="preserve" shape-rendering="auto">
<path fill="#000000" d="M488.367,0H211.621C94.746,0,0,94.746,0,211.621v276.745c0,116.876,94.746,211.622,211.621,211.622h276.746  c116.875,0,211.621-94.746,211.621-211.622V211.621C699.988,94.746,605.242,0,488.367,0z M599.99,448.832  c0,83.482-67.676,151.158-151.158,151.158H251.156c-83.482,0-151.158-67.676-151.158-151.158V251.156  c0-83.482,67.676-151.158,151.158-151.158h197.676c83.482,0,151.158,67.676,151.158,151.158V448.832z"/>
</svg>
<svg version="1.1" id="Ebene_1" x="1259" y="223" width="518" height="518" viewBox="0 0 699.988 699.988" enable-background="new 0 0 699.988 699.988" xml:space="preserve" shape-rendering="auto">
<path fill="#000000" d="M499.991,409.296c0,50.091-40.604,90.694-90.693,90.694H290.691c-50.089,0-90.694-40.604-90.694-90.694  V290.692c0-50.09,40.605-90.694,90.694-90.694h118.605c50.089,0,90.693,40.604,90.693,90.694L499.991,409.296L499.991,409.296z"/>
</svg>
<svg version="1.1" id="Ebene_1" x="223" y="1259" width="518" height="518" viewBox="0 0 699.988 699.988" enable-background="new 0 0 699.988 699.988" xml:space="preserve" shape-rendering="auto">
<path fill="#000000" d="M488.367,0H211.621C94.746,0,0,94.746,0,211.621v276.745c0,116.876,94.746,211.622,211.621,211.622h276.746  c116.875,0,211.621-94.746,211.621-211.622V211.621C699.988,94.746,605.242,0,488.367,0z M599.99,448.832  c0,83.482-67.676,151.158-151.158,151.158H251.156c-83.482,0-151.158-67.676-151.158-151.158V251.156  c0-83.482,67.676-151.158,151.158-151.158h197.676c83.482,0,151.158,67.676,151.158,151.158V448.832z"/>
</svg>
<svg version="1.1" id="Ebene_1" x="223" y="1259" width="518" height="518" viewBox="0 0 699.988 699.988" enable-background="new 0 0 699.988 699.988" xml:space="preserve" shape-rendering="auto">
<path fill="#000000" d="M499.991,409.296c0,50.091-40.604,90.694-90.693,90.694H290.691c-50.089,0-90.694-40.604-90.694-90.694  V290.692c0-50.09,40.605-90.694,90.694-90.694h118.605c50.089,0,90.693,40.604,90.693,90.694L499.991,409.296L499.991,409.296z"/>
</svg>
</svg>

</svg>
